<?xml version="1.0" standalone="no"?>
<!DOCTYPE svg PUBLIC "-//W3C//DTD SVG 20010904//EN"
 "http://www.w3.org/TR/2001/REC-SVG-20010904/DTD/svg10.dtd">
<svg version="1.0" xmlns="http://www.w3.org/2000/svg"
 width="512.000000pt" height="512.000000pt" viewBox="0 0 512.000000 512.000000"
 preserveAspectRatio="xMidYMid meet">
<metadata>
Created by potrace 1.11, written by Peter Selinger 2001-2013
</metadata>
<g transform="translate(0.000000,512.000000) scale(0.100000,-0.100000)"
fill="#000000" stroke="none">
<path d="M2417 4904 c-1 -1 -31 -5 -67 -8 -144 -12 -234 -28 -370 -63 -649
-166 -1196 -600 -1504 -1193 -76 -147 -171 -399 -192 -510 -3 -14 -10 -43 -16
-65 -5 -22 -11 -49 -13 -60 -9 -63 -18 -123 -21 -140 -23 -110 -22 -511 1
-620 2 -11 7 -37 10 -58 62 -446 313 -935 653 -1275 297 -297 630 -494 1025
-608 158 -45 260 -64 437 -81 135 -12 482 -4 510 12 3 1 31 6 62 9 170 20 434
104 643 206 415 202 740 496 985 890 57 92 180 339 180 362 0 8 4 18 9 24 11
11 62 170 90 279 81 320 87 725 15 1048 -136 614 -486 1125 -1009 1471 -116
77 -338 189 -477 240 -101 37 -337 100 -423 111 -91 13 -99 14 -170 21 -63 6
-353 13 -358 8z m235 -2153 c102 -44 147 -170 99 -277 -58 -127 -223 -163
-328 -71 -88 77 -97 222 -20 306 54 59 166 78 249 42z"/>
</g>
</svg>
